<?xml version="1.0" encoding="UTF-8" standalone="no"?>
<!DOCTYPE svg PUBLIC "-//W3C//DTD SVG 1.1//EN"
 "http://www.w3.org/Graphics/SVG/1.1/DTD/svg11.dtd">
<!-- Generated by graphviz version 2.38.0 (20140413.2041)
 -->
<!-- Title: Tree Pages: 1 -->
<svg width="1662pt" height="685pt"
 viewBox="0.00 0.00 1662.00 685.00" xmlns="http://www.w3.org/2000/svg" xmlns:xlink="http://www.w3.org/1999/xlink">
<g id="graph0" class="graph" transform="scale(1 1) rotate(0) translate(4 681)">
<title>Tree</title>
<polygon fill="white" stroke="none" points="-4,4 -4,-681 1658,-681 1658,4 -4,4"/>
<!-- 0 -->
<g id="node1" class="node"><title>0</title>
<polygon fill="none" stroke="black" points="609,-677 418,-677 418,-609 609,-609 609,-677"/>
<text text-anchor="middle" x="513.5" y="-661.8" font-family="Helvetica,sans-Serif" font-size="14.00">x[0] &lt;= &#45;3.078</text>
<text text-anchor="middle" x="513.5" y="-646.8" font-family="Helvetica,sans-Serif" font-size="14.00">gini = 0.865</text>
<text text-anchor="middle" x="513.5" y="-631.8" font-family="Helvetica,sans-Serif" font-size="14.00">samples = 34</text>
<text text-anchor="middle" x="513.5" y="-616.8" font-family="Helvetica,sans-Serif" font-size="14.00">value = [6, 6, 4, 4, 4, 4, 4, 2]</text>
</g>
<!-- 1 -->
<g id="node2" class="node"><title>1</title>
<polygon fill="none" stroke="black" points="505,-565.5 314,-565.5 314,-512.5 505,-512.5 505,-565.5"/>
<text text-anchor="middle" x="409.5" y="-550.3" font-family="Helvetica,sans-Serif" font-size="14.00">gini = 0.0</text>
<text text-anchor="middle" x="409.5" y="-535.3" font-family="Helvetica,sans-Serif" font-size="14.00">samples = 6</text>
<text text-anchor="middle" x="409.5" y="-520.3" font-family="Helvetica,sans-Serif" font-size="14.00">value = [6, 0, 0, 0, 0, 0, 0, 0]</text>
</g>
<!-- 0&#45;&gt;1 -->
<g id="edge1" class="edge"><title>0&#45;&gt;1</title>
<path fill="none" stroke="black" d="M479.734,-608.884C467.848,-597.226 454.506,-584.141 442.669,-572.532"/>
<polygon fill="black" stroke="black" points="445.11,-570.023 435.52,-565.52 440.209,-575.021 445.11,-570.023"/>
<text text-anchor="middle" x="435.763" y="-586.819" font-family="Helvetica,sans-Serif" font-size="14.00">True</text>
</g>
<!-- 2 -->
<g id="node3" class="node"><title>2</title>
<polygon fill="none" stroke="black" points="714,-573 523,-573 523,-505 714,-505 714,-573"/>
<text text-anchor="middle" x="618.5" y="-557.8" font-family="Helvetica,sans-Serif" font-size="14.00">x[0] &lt;= &#45;2.365</text>
<text text-anchor="middle" x="618.5" y="-542.8" font-family="Helvetica,sans-Serif" font-size="14.00">gini = 0.847</text>
<text text-anchor="middle" x="618.5" y="-527.8" font-family="Helvetica,sans-Serif" font-size="14.00">samples = 28</text>
<text text-anchor="middle" x="618.5" y="-512.8" font-family="Helvetica,sans-Serif" font-size="14.00">value = [0, 6, 4, 4, 4, 4, 4, 2]</text>
</g>
<!-- 0&#45;&gt;2 -->
<g id="edge2" class="edge"><title>0&#45;&gt;2</title>
<path fill="none" stroke="black" d="M547.59,-608.884C556.943,-599.798 567.188,-589.845 576.911,-580.4"/>
<polygon fill="black" stroke="black" points="579.487,-582.778 584.221,-573.299 574.61,-577.757 579.487,-582.778"/>
<text text-anchor="middle" x="583.859" y="-594.597" font-family="Helvetica,sans-Serif" font-size="14.00">False</text>
</g>
<!-- 3 -->
<g id="node4" class="node"><title>3</title>
<polygon fill="none" stroke="black" points="609,-469 418,-469 418,-401 609,-401 609,-469"/>
<text text-anchor="middle" x="513.5" y="-453.8" font-family="Helvetica,sans-Serif" font-size="14.00">x[2] &lt;= 1.436</text>
<text text-anchor="middle" x="513.5" y="-438.8" font-family="Helvetica,sans-Serif" font-size="14.00">gini = 0.245</text>
<text text-anchor="middle" x="513.5" y="-423.8" font-family="Helvetica,sans-Serif" font-size="14.00">samples = 7</text>
<text text-anchor="middle" x="513.5" y="-408.8" font-family="Helvetica,sans-Serif" font-size="14.00">value = [0, 6, 1, 0, 0, 0, 0, 0]</text>
</g>
<!-- 2&#45;&gt;3 -->
<g id="edge3" class="edge"><title>2&#45;&gt;3</title>
<path fill="none" stroke="black" d="M584.41,-504.884C575.057,-495.798 564.812,-485.845 555.089,-476.4"/>
<polygon fill="black" stroke="black" points="557.39,-473.757 547.779,-469.299 552.513,-478.778 557.39,-473.757"/>
</g>
<!-- 6 -->
<g id="node7" class="node"><title>6</title>
<polygon fill="none" stroke="black" points="818,-469 627,-469 627,-401 818,-401 818,-469"/>
<text text-anchor="middle" x="722.5" y="-453.8" font-family="Helvetica,sans-Serif" font-size="14.00">x[0] &lt;= 2.395</text>
<text text-anchor="middle" x="722.5" y="-438.8" font-family="Helvetica,sans-Serif" font-size="14.00">gini = 0.825</text>
<text text-anchor="middle" x="722.5" y="-423.8" font-family="Helvetica,sans-Serif" font-size="14.00">samples = 21</text>
<text text-anchor="middle" x="722.5" y="-408.8" font-family="Helvetica,sans-Serif" font-size="14.00">value = [0, 0, 3, 4, 4, 4, 4, 2]</text>
</g>
<!-- 2&#45;&gt;6 -->
<g id="edge6" class="edge"><title>2&#45;&gt;6</title>
<path fill="none" stroke="black" d="M652.266,-504.884C661.529,-495.798 671.677,-485.845 681.307,-476.4"/>
<polygon fill="black" stroke="black" points="683.859,-478.8 688.548,-469.299 678.958,-473.803 683.859,-478.8"/>
</g>
<!-- 4 -->
<g id="node5" class="node"><title>4</title>
<polygon fill="none" stroke="black" points="400,-357.5 209,-357.5 209,-304.5 400,-304.5 400,-357.5"/>
<text text-anchor="middle" x="304.5" y="-342.3" font-family="Helvetica,sans-Serif" font-size="14.00">gini = 0.0</text>
<text text-anchor="middle" x="304.5" y="-327.3" font-family="Helvetica,sans-Serif" font-size="14.00">samples = 6</text>
<text text-anchor="middle" x="304.5" y="-312.3" font-family="Helvetica,sans-Serif" font-size="14.00">value = [0, 6, 0, 0, 0, 0, 0, 0]</text>
</g>
<!-- 3&#45;&gt;4 -->
<g id="edge4" class="edge"><title>3&#45;&gt;4</title>
<path fill="none" stroke="black" d="M445.644,-400.884C419.954,-388.346 390.881,-374.157 365.826,-361.93"/>
<polygon fill="black" stroke="black" points="367.313,-358.761 356.791,-357.52 364.243,-365.051 367.313,-358.761"/>
</g>
<!-- 5 -->
<g id="node6" class="node"><title>5</title>
<polygon fill="none" stroke="black" points="609,-357.5 418,-357.5 418,-304.5 609,-304.5 609,-357.5"/>
<text text-anchor="middle" x="513.5" y="-342.3" font-family="Helvetica,sans-Serif" font-size="14.00">gini = 0.0</text>
<text text-anchor="middle" x="513.5" y="-327.3" font-family="Helvetica,sans-Serif" font-size="14.00">samples = 1</text>
<text text-anchor="middle" x="513.5" y="-312.3" font-family="Helvetica,sans-Serif" font-size="14.00">value = [0, 0, 1, 0, 0, 0, 0, 0]</text>
</g>
<!-- 3&#45;&gt;5 -->
<g id="edge5" class="edge"><title>3&#45;&gt;5</title>
<path fill="none" stroke="black" d="M513.5,-400.884C513.5,-390.326 513.5,-378.597 513.5,-367.854"/>
<polygon fill="black" stroke="black" points="517,-367.52 513.5,-357.52 510,-367.52 517,-367.52"/>
</g>
<!-- 7 -->
<g id="node8" class="node"><title>7</title>
<polygon fill="none" stroke="black" points="818,-365 627,-365 627,-297 818,-297 818,-365"/>
<text text-anchor="middle" x="722.5" y="-349.8" font-family="Helvetica,sans-Serif" font-size="14.00">x[0] &lt;= 0.784</text>
<text text-anchor="middle" x="722.5" y="-334.8" font-family="Helvetica,sans-Serif" font-size="14.00">gini = 0.661</text>
<text text-anchor="middle" x="722.5" y="-319.8" font-family="Helvetica,sans-Serif" font-size="14.00">samples = 11</text>
<text text-anchor="middle" x="722.5" y="-304.8" font-family="Helvetica,sans-Serif" font-size="14.00">value = [0, 0, 3, 4, 4, 0, 0, 0]</text>
</g>
<!-- 6&#45;&gt;7 -->
<g id="edge7" class="edge"><title>6&#45;&gt;7</title>
<path fill="none" stroke="black" d="M722.5,-400.884C722.5,-392.778 722.5,-383.982 722.5,-375.472"/>
<polygon fill="black" stroke="black" points="726,-375.299 722.5,-365.299 719,-375.299 726,-375.299"/>
</g>
<!-- 16 -->
<g id="node17" class="node"><title>16</title>
<polygon fill="none" stroke="black" points="1131,-365 940,-365 940,-297 1131,-297 1131,-365"/>
<text text-anchor="middle" x="1035.5" y="-349.8" font-family="Helvetica,sans-Serif" font-size="14.00">x[0] &lt;= 2.987</text>
<text text-anchor="middle" x="1035.5" y="-334.8" font-family="Helvetica,sans-Serif" font-size="14.00">gini = 0.64</text>
<text text-anchor="middle" x="1035.5" y="-319.8" font-family="Helvetica,sans-Serif" font-size="14.00">samples = 10</text>
<text text-anchor="middle" x="1035.5" y="-304.8" font-family="Helvetica,sans-Serif" font-size="14.00">value = [0, 0, 0, 0, 0, 4, 4, 2]</text>
</g>
<!-- 6&#45;&gt;16 -->
<g id="edge16" class="edge"><title>6&#45;&gt;16</title>
<path fill="none" stroke="black" d="M818.111,-402.842C853.593,-391.28 894.022,-378.105 930.312,-366.278"/>
<polygon fill="black" stroke="black" points="931.512,-369.569 939.936,-363.142 929.343,-362.913 931.512,-369.569"/>
</g>
<!-- 8 -->
<g id="node9" class="node"><title>8</title>
<polygon fill="none" stroke="black" points="400,-261 209,-261 209,-193 400,-193 400,-261"/>
<text text-anchor="middle" x="304.5" y="-245.8" font-family="Helvetica,sans-Serif" font-size="14.00">x[1] &lt;= 1.516</text>
<text text-anchor="middle" x="304.5" y="-230.8" font-family="Helvetica,sans-Serif" font-size="14.00">gini = 0.48</text>
<text text-anchor="middle" x="304.5" y="-215.8" font-family="Helvetica,sans-Serif" font-size="14.00">samples = 5</text>
<text text-anchor="middle" x="304.5" y="-200.8" font-family="Helvetica,sans-Serif" font-size="14.00">value = [0, 0, 3, 2, 0, 0, 0, 0]</text>
</g>
<!-- 7&#45;&gt;8 -->
<g id="edge8" class="edge"><title>7&#45;&gt;8</title>
<path fill="none" stroke="black" d="M626.751,-299.528C623.636,-298.658 620.546,-297.813 617.5,-297 549.001,-278.723 471.156,-261.548 410.236,-248.905"/>
<polygon fill="black" stroke="black" points="410.725,-245.432 400.223,-246.836 409.308,-252.287 410.725,-245.432"/>
</g>
<!-- 11 -->
<g id="node12" class="node"><title>11</title>
<polygon fill="none" stroke="black" points="818,-261 627,-261 627,-193 818,-193 818,-261"/>
<text text-anchor="middle" x="722.5" y="-245.8" font-family="Helvetica,sans-Serif" font-size="14.00">x[2] &lt;= &#45;0.161</text>
<text text-anchor="middle" x="722.5" y="-230.8" font-family="Helvetica,sans-Serif" font-size="14.00">gini = 0.444</text>
<text text-anchor="middle" x="722.5" y="-215.8" font-family="Helvetica,sans-Serif" font-size="14.00">samples = 6</text>
<text text-anchor="middle" x="722.5" y="-200.8" font-family="Helvetica,sans-Serif" font-size="14.00">value = [0, 0, 0, 2, 4, 0, 0, 0]</text>
</g>
<!-- 7&#45;&gt;11 -->
<g id="edge11" class="edge"><title>7&#45;&gt;11</title>
<path fill="none" stroke="black" d="M722.5,-296.884C722.5,-288.778 722.5,-279.982 722.5,-271.472"/>
<polygon fill="black" stroke="black" points="726,-271.299 722.5,-261.299 719,-271.299 726,-271.299"/>
</g>
<!-- 9 -->
<g id="node10" class="node"><title>9</title>
<polygon fill="none" stroke="black" points="191,-149.5 0,-149.5 0,-96.5 191,-96.5 191,-149.5"/>
<text text-anchor="middle" x="95.5" y="-134.3" font-family="Helvetica,sans-Serif" font-size="14.00">gini = 0.0</text>
<text text-anchor="middle" x="95.5" y="-119.3" font-family="Helvetica,sans-Serif" font-size="14.00">samples = 3</text>
<text text-anchor="middle" x="95.5" y="-104.3" font-family="Helvetica,sans-Serif" font-size="14.00">value = [0, 0, 3, 0, 0, 0, 0, 0]</text>
</g>
<!-- 8&#45;&gt;9 -->
<g id="edge9" class="edge"><title>8&#45;&gt;9</title>
<path fill="none" stroke="black" d="M236.644,-192.884C210.954,-180.346 181.881,-166.157 156.826,-153.93"/>
<polygon fill="black" stroke="black" points="158.313,-150.761 147.791,-149.52 155.243,-157.051 158.313,-150.761"/>
</g>
<!-- 10 -->
<g id="node11" class="node"><title>10</title>
<polygon fill="none" stroke="black" points="400,-149.5 209,-149.5 209,-96.5 400,-96.5 400,-149.5"/>
<text text-anchor="middle" x="304.5" y="-134.3" font-family="Helvetica,sans-Serif" font-size="14.00">gini = 0.0</text>
<text text-anchor="middle" x="304.5" y="-119.3" font-family="Helvetica,sans-Serif" font-size="14.00">samples = 2</text>
<text text-anchor="middle" x="304.5" y="-104.3" font-family="Helvetica,sans-Serif" font-size="14.00">value = [0, 0, 0, 2, 0, 0, 0, 0]</text>
</g>
<!-- 8&#45;&gt;10 -->
<g id="edge10" class="edge"><title>8&#45;&gt;10</title>
<path fill="none" stroke="black" d="M304.5,-192.884C304.5,-182.326 304.5,-170.597 304.5,-159.854"/>
<polygon fill="black" stroke="black" points="308,-159.52 304.5,-149.52 301,-159.52 308,-159.52"/>
</g>
<!-- 12 -->
<g id="node13" class="node"><title>12</title>
<polygon fill="none" stroke="black" points="609,-149.5 418,-149.5 418,-96.5 609,-96.5 609,-149.5"/>
<text text-anchor="middle" x="513.5" y="-134.3" font-family="Helvetica,sans-Serif" font-size="14.00">gini = 0.0</text>
<text text-anchor="middle" x="513.5" y="-119.3" font-family="Helvetica,sans-Serif" font-size="14.00">samples = 3</text>
<text text-anchor="middle" x="513.5" y="-104.3" font-family="Helvetica,sans-Serif" font-size="14.00">value = [0, 0, 0, 0, 3, 0, 0, 0]</text>
</g>
<!-- 11&#45;&gt;12 -->
<g id="edge12" class="edge"><title>11&#45;&gt;12</title>
<path fill="none" stroke="black" d="M654.644,-192.884C628.954,-180.346 599.881,-166.157 574.826,-153.93"/>
<polygon fill="black" stroke="black" points="576.313,-150.761 565.791,-149.52 573.243,-157.051 576.313,-150.761"/>
</g>
<!-- 13 -->
<g id="node14" class="node"><title>13</title>
<polygon fill="none" stroke="black" points="818,-157 627,-157 627,-89 818,-89 818,-157"/>
<text text-anchor="middle" x="722.5" y="-141.8" font-family="Helvetica,sans-Serif" font-size="14.00">x[0] &lt;= 1.78</text>
<text text-anchor="middle" x="722.5" y="-126.8" font-family="Helvetica,sans-Serif" font-size="14.00">gini = 0.444</text>
<text text-anchor="middle" x="722.5" y="-111.8" font-family="Helvetica,sans-Serif" font-size="14.00">samples = 3</text>
<text text-anchor="middle" x="722.5" y="-96.8" font-family="Helvetica,sans-Serif" font-size="14.00">value = [0, 0, 0, 2, 1, 0, 0, 0]</text>
</g>
<!-- 11&#45;&gt;13 -->
<g id="edge13" class="edge"><title>11&#45;&gt;13</title>
<path fill="none" stroke="black" d="M722.5,-192.884C722.5,-184.778 722.5,-175.982 722.5,-167.472"/>
<polygon fill="black" stroke="black" points="726,-167.299 722.5,-157.299 719,-167.299 726,-167.299"/>
</g>
<!-- 14 -->
<g id="node15" class="node"><title>14</title>
<polygon fill="none" stroke="black" points="713,-53 522,-53 522,-0 713,-0 713,-53"/>
<text text-anchor="middle" x="617.5" y="-37.8" font-family="Helvetica,sans-Serif" font-size="14.00">gini = 0.0</text>
<text text-anchor="middle" x="617.5" y="-22.8" font-family="Helvetica,sans-Serif" font-size="14.00">samples = 2</text>
<text text-anchor="middle" x="617.5" y="-7.8" font-family="Helvetica,sans-Serif" font-size="14.00">value = [0, 0, 0, 2, 0, 0, 0, 0]</text>
</g>
<!-- 13&#45;&gt;14 -->
<g id="edge14" class="edge"><title>13&#45;&gt;14</title>
<path fill="none" stroke="black" d="M685.776,-88.9485C675.408,-79.6175 664.136,-69.4722 653.793,-60.1641"/>
<polygon fill="black" stroke="black" points="655.871,-57.3248 646.096,-53.2367 651.188,-62.5279 655.871,-57.3248"/>
</g>
<!-- 15 -->
<g id="node16" class="node"><title>15</title>
<polygon fill="none" stroke="black" points="922,-53 731,-53 731,-0 922,-0 922,-53"/>
<text text-anchor="middle" x="826.5" y="-37.8" font-family="Helvetica,sans-Serif" font-size="14.00">gini = 0.0</text>
<text text-anchor="middle" x="826.5" y="-22.8" font-family="Helvetica,sans-Serif" font-size="14.00">samples = 1</text>
<text text-anchor="middle" x="826.5" y="-7.8" font-family="Helvetica,sans-Serif" font-size="14.00">value = [0, 0, 0, 0, 1, 0, 0, 0]</text>
</g>
<!-- 13&#45;&gt;15 -->
<g id="edge15" class="edge"><title>13&#45;&gt;15</title>
<path fill="none" stroke="black" d="M758.874,-88.9485C769.143,-79.6175 780.308,-69.4722 790.552,-60.1641"/>
<polygon fill="black" stroke="black" points="793.129,-62.5521 798.176,-53.2367 788.421,-57.3713 793.129,-62.5521"/>
</g>
<!-- 17 -->
<g id="node18" class="node"><title>17</title>
<polygon fill="none" stroke="black" points="1131,-261 940,-261 940,-193 1131,-193 1131,-261"/>
<text text-anchor="middle" x="1035.5" y="-245.8" font-family="Helvetica,sans-Serif" font-size="14.00">x[1] &lt;= &#45;0.834</text>
<text text-anchor="middle" x="1035.5" y="-230.8" font-family="Helvetica,sans-Serif" font-size="14.00">gini = 0.32</text>
<text text-anchor="middle" x="1035.5" y="-215.8" font-family="Helvetica,sans-Serif" font-size="14.00">samples = 5</text>
<text text-anchor="middle" x="1035.5" y="-200.8" font-family="Helvetica,sans-Serif" font-size="14.00">value = [0, 0, 0, 0, 0, 4, 1, 0]</text>
</g>
<!-- 16&#45;&gt;17 -->
<g id="edge17" class="edge"><title>16&#45;&gt;17</title>
<path fill="none" stroke="black" d="M1035.5,-296.884C1035.5,-288.778 1035.5,-279.982 1035.5,-271.472"/>
<polygon fill="black" stroke="black" points="1039,-271.299 1035.5,-261.299 1032,-271.299 1039,-271.299"/>
</g>
<!-- 20 -->
<g id="node21" class="node"><title>20</title>
<polygon fill="none" stroke="black" points="1445,-261 1254,-261 1254,-193 1445,-193 1445,-261"/>
<text text-anchor="middle" x="1349.5" y="-245.8" font-family="Helvetica,sans-Serif" font-size="14.00">x[0] &lt;= 3.292</text>
<text text-anchor="middle" x="1349.5" y="-230.8" font-family="Helvetica,sans-Serif" font-size="14.00">gini = 0.48</text>
<text text-anchor="middle" x="1349.5" y="-215.8" font-family="Helvetica,sans-Serif" font-size="14.00">samples = 5</text>
<text text-anchor="middle" x="1349.5" y="-200.8" font-family="Helvetica,sans-Serif" font-size="14.00">value = [0, 0, 0, 0, 0, 0, 3, 2]</text>
</g>
<!-- 16&#45;&gt;20 -->
<g id="edge20" class="edge"><title>16&#45;&gt;20</title>
<path fill="none" stroke="black" d="M1131.42,-298.842C1167.09,-287.253 1207.76,-274.043 1244.23,-262.196"/>
<polygon fill="black" stroke="black" points="1245.47,-265.473 1253.9,-259.055 1243.31,-258.815 1245.47,-265.473"/>
</g>
<!-- 18 -->
<g id="node19" class="node"><title>18</title>
<polygon fill="none" stroke="black" points="1027,-149.5 836,-149.5 836,-96.5 1027,-96.5 1027,-149.5"/>
<text text-anchor="middle" x="931.5" y="-134.3" font-family="Helvetica,sans-Serif" font-size="14.00">gini = 0.0</text>
<text text-anchor="middle" x="931.5" y="-119.3" font-family="Helvetica,sans-Serif" font-size="14.00">samples = 1</text>
<text text-anchor="middle" x="931.5" y="-104.3" font-family="Helvetica,sans-Serif" font-size="14.00">value = [0, 0, 0, 0, 0, 0, 1, 0]</text>
</g>
<!-- 17&#45;&gt;18 -->
<g id="edge18" class="edge"><title>17&#45;&gt;18</title>
<path fill="none" stroke="black" d="M1001.73,-192.884C989.848,-181.226 976.506,-168.141 964.669,-156.532"/>
<polygon fill="black" stroke="black" points="967.11,-154.023 957.52,-149.52 962.209,-159.021 967.11,-154.023"/>
</g>
<!-- 19 -->
<g id="node20" class="node"><title>19</title>
<polygon fill="none" stroke="black" points="1236,-149.5 1045,-149.5 1045,-96.5 1236,-96.5 1236,-149.5"/>
<text text-anchor="middle" x="1140.5" y="-134.3" font-family="Helvetica,sans-Serif" font-size="14.00">gini = 0.0</text>
<text text-anchor="middle" x="1140.5" y="-119.3" font-family="Helvetica,sans-Serif" font-size="14.00">samples = 4</text>
<text text-anchor="middle" x="1140.5" y="-104.3" font-family="Helvetica,sans-Serif" font-size="14.00">value = [0, 0, 0, 0, 0, 4, 0, 0]</text>
</g>
<!-- 17&#45;&gt;19 -->
<g id="edge19" class="edge"><title>17&#45;&gt;19</title>
<path fill="none" stroke="black" d="M1069.59,-192.884C1081.59,-181.226 1095.06,-168.141 1107.01,-156.532"/>
<polygon fill="black" stroke="black" points="1109.5,-158.998 1114.23,-149.52 1104.62,-153.977 1109.5,-158.998"/>
</g>
<!-- 21 -->
<g id="node22" class="node"><title>21</title>
<polygon fill="none" stroke="black" points="1445,-149.5 1254,-149.5 1254,-96.5 1445,-96.5 1445,-149.5"/>
<text text-anchor="middle" x="1349.5" y="-134.3" font-family="Helvetica,sans-Serif" font-size="14.00">gini = 0.0</text>
<text text-anchor="middle" x="1349.5" y="-119.3" font-family="Helvetica,sans-Serif" font-size="14.00">samples = 3</text>
<text text-anchor="middle" x="1349.5" y="-104.3" font-family="Helvetica,sans-Serif" font-size="14.00">value = [0, 0, 0, 0, 0, 0, 3, 0]</text>
</g>
<!-- 20&#45;&gt;21 -->
<g id="edge21" class="edge"><title>20&#45;&gt;21</title>
<path fill="none" stroke="black" d="M1349.5,-192.884C1349.5,-182.326 1349.5,-170.597 1349.5,-159.854"/>
<polygon fill="black" stroke="black" points="1353,-159.52 1349.5,-149.52 1346,-159.52 1353,-159.52"/>
</g>
<!-- 22 -->
<g id="node23" class="node"><title>22</title>
<polygon fill="none" stroke="black" points="1654,-149.5 1463,-149.5 1463,-96.5 1654,-96.5 1654,-149.5"/>
<text text-anchor="middle" x="1558.5" y="-134.3" font-family="Helvetica,sans-Serif" font-size="14.00">gini = 0.0</text>
<text text-anchor="middle" x="1558.5" y="-119.3" font-family="Helvetica,sans-Serif" font-size="14.00">samples = 2</text>
<text text-anchor="middle" x="1558.5" y="-104.3" font-family="Helvetica,sans-Serif" font-size="14.00">value = [0, 0, 0, 0, 0, 0, 0, 2]</text>
</g>
<!-- 20&#45;&gt;22 -->
<g id="edge22" class="edge"><title>20&#45;&gt;22</title>
<path fill="none" stroke="black" d="M1417.36,-192.884C1443.05,-180.346 1472.12,-166.157 1497.17,-153.93"/>
<polygon fill="black" stroke="black" points="1498.76,-157.051 1506.21,-149.52 1495.69,-150.761 1498.76,-157.051"/>
</g>
</g>
</svg>
